<svg width="816" height="413" viewBox="0 0 816 413" fill="none" xmlns="http://www.w3.org/2000/svg">
<rect x="42.5" y="214.5" width="766" height="190" rx="46.5" fill="white" stroke="white" stroke-width="15"/>
<rect x="42.5" y="161.5" width="392" height="243" rx="46.5" fill="white" stroke="white" stroke-width="15"/>
<path d="M159.049 95.177C159.049 95.1765 159.051 95.1806 159.055 95.1897C159.051 95.1818 159.049 95.1775 159.049 95.177ZM133.312 98.5H158.455L144.648 109.201L144.633 109.213C131.663 119.291 121.27 133.794 113.875 150.752V137C113.875 125.138 116.949 114.475 121.574 107.289C126.222 100.068 130.818 98.5 133.312 98.5ZM100.808 189.048C100.796 189.076 100.789 189.089 100.789 189.089C100.788 189.088 100.794 189.074 100.808 189.048ZM133.312 15C108.407 15 86.7244 30.3421 71.9976 53.2208C57.2485 76.1342 49.4375 106.295 49.4375 137V148.75H47.2188C36.0135 148.75 27.4697 155.637 22.4304 163.466C17.3686 171.33 15 181.078 15 190.5C15 199.922 17.3686 209.67 22.4304 217.534C27.4698 225.363 36.0135 232.25 47.2188 232.25H49.4375V244C49.4375 274.705 57.2485 304.866 71.9976 327.779C86.7244 350.658 108.407 366 133.312 366H167.75C201.789 366 232.231 345.021 253.416 312.109C274.623 279.163 286.062 235.394 286.062 190.5C286.062 178.638 289.136 167.975 293.762 160.789C298.41 153.568 303.005 152 305.5 152C307.995 152 312.59 153.568 317.238 160.789C321.864 167.975 324.938 178.638 324.938 190.5C324.938 235.394 336.377 279.163 357.584 312.109C378.769 345.021 409.211 366 443.25 366H477.688C502.593 366 524.276 350.658 539.002 327.779C553.752 304.866 561.562 274.705 561.562 244V232.25H563.781C574.986 232.25 583.53 225.363 588.57 217.534C593.631 209.67 596 199.922 596 190.5C596 181.079 593.631 171.33 588.57 163.466C583.53 155.637 574.987 148.75 563.781 148.75H561.562V137C561.562 106.295 553.752 76.1342 539.002 53.2208C524.276 30.3421 502.593 15 477.688 15H408.818C408.816 15 408.814 15 408.812 15C389.419 14.9917 371.692 24.3851 357.859 39.6147C348.638 49.7674 341.206 62.394 335.753 76.4997C326.424 71.3507 316.209 68.4844 305.5 68.5C294.791 68.4844 284.576 71.3507 275.247 76.4997C269.794 62.394 262.362 49.7674 253.141 39.6147C239.308 24.3851 221.581 14.9917 202.188 15C202.186 15 202.184 15 202.182 15H133.312Z" fill="#00A3FF" stroke="white" stroke-width="30" stroke-linejoin="round"/>
<mask id="path-4-outside-1_6_26" maskUnits="userSpaceOnUse" x="244.836" y="198.949" width="567" height="215" fill="black">
<rect fill="white" x="244.836" y="198.949" width="567" height="215"/>
<path d="M399.152 307.074V312.836C399.152 323.708 397.622 333.474 394.562 342.133C391.568 350.727 387.303 358.083 381.77 364.203C376.236 370.258 369.693 374.913 362.141 378.168C354.589 381.358 346.255 382.953 337.141 382.953C327.961 382.953 319.562 381.358 311.945 378.168C304.393 374.913 297.818 370.258 292.219 364.203C286.685 358.083 282.388 350.727 279.328 342.133C276.333 333.474 274.836 323.708 274.836 312.836V307.074C274.836 296.202 276.333 286.436 279.328 277.777C282.388 269.118 286.652 261.762 292.121 255.707C297.655 249.587 304.198 244.932 311.75 241.742C319.367 238.487 327.766 236.859 336.945 236.859C346.06 236.859 354.393 238.487 361.945 241.742C369.562 244.932 376.138 249.587 381.672 255.707C387.206 261.762 391.503 269.118 394.562 277.777C397.622 286.436 399.152 296.202 399.152 307.074ZM364.387 312.836V306.879C364.387 299.848 363.768 293.663 362.531 288.324C361.359 282.921 359.602 278.396 357.258 274.75C354.914 271.104 352.017 268.37 348.566 266.547C345.181 264.659 341.307 263.715 336.945 263.715C332.388 263.715 328.417 264.659 325.031 266.547C321.646 268.37 318.814 271.104 316.535 274.75C314.257 278.396 312.531 282.921 311.359 288.324C310.253 293.663 309.699 299.848 309.699 306.879V312.836C309.699 319.802 310.253 325.987 311.359 331.391C312.531 336.729 314.257 341.254 316.535 344.965C318.879 348.676 321.743 351.475 325.129 353.363C328.579 355.251 332.583 356.195 337.141 356.195C341.503 356.195 345.376 355.251 348.762 353.363C352.147 351.475 354.979 348.676 357.258 344.965C359.602 341.254 361.359 336.729 362.531 331.391C363.768 325.987 364.387 319.802 364.387 312.836Z"/>
<path d="M477.082 355.316V275.336H510.09V381H479.23L477.082 355.316ZM480.207 333.832L488.801 333.637C488.801 340.733 487.954 347.309 486.262 353.363C484.569 359.353 482.062 364.561 478.742 368.988C475.487 373.415 471.451 376.866 466.633 379.34C461.88 381.749 456.379 382.953 450.129 382.953C444.921 382.953 440.135 382.237 435.773 380.805C431.477 379.307 427.766 376.996 424.641 373.871C421.516 370.681 419.074 366.612 417.316 361.664C415.624 356.651 414.777 350.661 414.777 343.695V275.336H447.688V343.891C447.688 346.234 447.98 348.253 448.566 349.945C449.152 351.638 449.999 353.07 451.105 354.242C452.212 355.349 453.579 356.195 455.207 356.781C456.9 357.302 458.82 357.562 460.969 357.562C465.917 357.562 469.79 356.521 472.59 354.438C475.389 352.354 477.342 349.522 478.449 345.941C479.621 342.361 480.207 338.324 480.207 333.832Z"/>
<path d="M583.918 275.336V298.188H520.246V275.336H583.918ZM533.625 249.066H566.535V346.527C566.535 349.327 566.861 351.508 567.512 353.07C568.163 354.568 569.27 355.642 570.832 356.293C572.46 356.879 574.608 357.172 577.277 357.172C579.165 357.172 580.728 357.139 581.965 357.074C583.202 356.944 584.374 356.781 585.48 356.586V380.121C582.681 381.033 579.751 381.716 576.691 382.172C573.632 382.693 570.376 382.953 566.926 382.953C559.895 382.953 553.872 381.846 548.859 379.633C543.911 377.419 540.135 373.936 537.531 369.184C534.927 364.431 533.625 358.246 533.625 350.629V249.066Z"/>
<path d="M637.727 381H604.621V272.602C604.621 263.161 606.574 255.219 610.48 248.773C614.452 242.263 620.148 237.348 627.57 234.027C634.992 230.642 643.977 228.949 654.523 228.949C660.513 228.949 666.275 229.47 671.809 230.512C677.342 231.553 683.072 232.921 688.996 234.613L684.406 260.59C680.565 259.548 676.529 258.572 672.297 257.66C668.13 256.749 662.889 256.293 656.574 256.293C650.65 256.293 646.027 257.693 642.707 260.492C639.387 263.292 637.727 267.328 637.727 272.602V381ZM658.43 275.336V298.188H589.387V275.336H658.43ZM704.035 275.336V381H671.027V275.336H704.035Z"/>
<path d="M780.012 275.336V298.188H716.34V275.336H780.012ZM729.719 249.066H762.629V346.527C762.629 349.327 762.954 351.508 763.605 353.07C764.257 354.568 765.363 355.642 766.926 356.293C768.553 356.879 770.702 357.172 773.371 357.172C775.259 357.172 776.822 357.139 778.059 357.074C779.296 356.944 780.467 356.781 781.574 356.586V380.121C778.775 381.033 775.845 381.716 772.785 382.172C769.725 382.693 766.47 382.953 763.02 382.953C755.988 382.953 749.966 381.846 744.953 379.633C740.005 377.419 736.229 373.936 733.625 369.184C731.021 364.431 729.719 358.246 729.719 350.629V249.066Z"/>
</mask>
<path d="M399.152 307.074V312.836C399.152 323.708 397.622 333.474 394.562 342.133C391.568 350.727 387.303 358.083 381.77 364.203C376.236 370.258 369.693 374.913 362.141 378.168C354.589 381.358 346.255 382.953 337.141 382.953C327.961 382.953 319.562 381.358 311.945 378.168C304.393 374.913 297.818 370.258 292.219 364.203C286.685 358.083 282.388 350.727 279.328 342.133C276.333 333.474 274.836 323.708 274.836 312.836V307.074C274.836 296.202 276.333 286.436 279.328 277.777C282.388 269.118 286.652 261.762 292.121 255.707C297.655 249.587 304.198 244.932 311.75 241.742C319.367 238.487 327.766 236.859 336.945 236.859C346.06 236.859 354.393 238.487 361.945 241.742C369.562 244.932 376.138 249.587 381.672 255.707C387.206 261.762 391.503 269.118 394.562 277.777C397.622 286.436 399.152 296.202 399.152 307.074ZM364.387 312.836V306.879C364.387 299.848 363.768 293.663 362.531 288.324C361.359 282.921 359.602 278.396 357.258 274.75C354.914 271.104 352.017 268.37 348.566 266.547C345.181 264.659 341.307 263.715 336.945 263.715C332.388 263.715 328.417 264.659 325.031 266.547C321.646 268.37 318.814 271.104 316.535 274.75C314.257 278.396 312.531 282.921 311.359 288.324C310.253 293.663 309.699 299.848 309.699 306.879V312.836C309.699 319.802 310.253 325.987 311.359 331.391C312.531 336.729 314.257 341.254 316.535 344.965C318.879 348.676 321.743 351.475 325.129 353.363C328.579 355.251 332.583 356.195 337.141 356.195C341.503 356.195 345.376 355.251 348.762 353.363C352.147 351.475 354.979 348.676 357.258 344.965C359.602 341.254 361.359 336.729 362.531 331.391C363.768 325.987 364.387 319.802 364.387 312.836Z" fill="#00A3FF"/>
<path d="M477.082 355.316V275.336H510.09V381H479.23L477.082 355.316ZM480.207 333.832L488.801 333.637C488.801 340.733 487.954 347.309 486.262 353.363C484.569 359.353 482.062 364.561 478.742 368.988C475.487 373.415 471.451 376.866 466.633 379.34C461.88 381.749 456.379 382.953 450.129 382.953C444.921 382.953 440.135 382.237 435.773 380.805C431.477 379.307 427.766 376.996 424.641 373.871C421.516 370.681 419.074 366.612 417.316 361.664C415.624 356.651 414.777 350.661 414.777 343.695V275.336H447.688V343.891C447.688 346.234 447.98 348.253 448.566 349.945C449.152 351.638 449.999 353.07 451.105 354.242C452.212 355.349 453.579 356.195 455.207 356.781C456.9 357.302 458.82 357.562 460.969 357.562C465.917 357.562 469.79 356.521 472.59 354.438C475.389 352.354 477.342 349.522 478.449 345.941C479.621 342.361 480.207 338.324 480.207 333.832Z" fill="#00A3FF"/>
<path d="M583.918 275.336V298.188H520.246V275.336H583.918ZM533.625 249.066H566.535V346.527C566.535 349.327 566.861 351.508 567.512 353.07C568.163 354.568 569.27 355.642 570.832 356.293C572.46 356.879 574.608 357.172 577.277 357.172C579.165 357.172 580.728 357.139 581.965 357.074C583.202 356.944 584.374 356.781 585.48 356.586V380.121C582.681 381.033 579.751 381.716 576.691 382.172C573.632 382.693 570.376 382.953 566.926 382.953C559.895 382.953 553.872 381.846 548.859 379.633C543.911 377.419 540.135 373.936 537.531 369.184C534.927 364.431 533.625 358.246 533.625 350.629V249.066Z" fill="#00A3FF"/>
<path d="M637.727 381H604.621V272.602C604.621 263.161 606.574 255.219 610.48 248.773C614.452 242.263 620.148 237.348 627.57 234.027C634.992 230.642 643.977 228.949 654.523 228.949C660.513 228.949 666.275 229.47 671.809 230.512C677.342 231.553 683.072 232.921 688.996 234.613L684.406 260.59C680.565 259.548 676.529 258.572 672.297 257.66C668.13 256.749 662.889 256.293 656.574 256.293C650.65 256.293 646.027 257.693 642.707 260.492C639.387 263.292 637.727 267.328 637.727 272.602V381ZM658.43 275.336V298.188H589.387V275.336H658.43ZM704.035 275.336V381H671.027V275.336H704.035Z" fill="#00A3FF"/>
<path d="M780.012 275.336V298.188H716.34V275.336H780.012ZM729.719 249.066H762.629V346.527C762.629 349.327 762.954 351.508 763.605 353.07C764.257 354.568 765.363 355.642 766.926 356.293C768.553 356.879 770.702 357.172 773.371 357.172C775.259 357.172 776.822 357.139 778.059 357.074C779.296 356.944 780.467 356.781 781.574 356.586V380.121C778.775 381.033 775.845 381.716 772.785 382.172C769.725 382.693 766.47 382.953 763.02 382.953C755.988 382.953 749.966 381.846 744.953 379.633C740.005 377.419 736.229 373.936 733.625 369.184C731.021 364.431 729.719 358.246 729.719 350.629V249.066Z" fill="#00A3FF"/>
<path d="M399.152 307.074V312.836C399.152 323.708 397.622 333.474 394.562 342.133C391.568 350.727 387.303 358.083 381.77 364.203C376.236 370.258 369.693 374.913 362.141 378.168C354.589 381.358 346.255 382.953 337.141 382.953C327.961 382.953 319.562 381.358 311.945 378.168C304.393 374.913 297.818 370.258 292.219 364.203C286.685 358.083 282.388 350.727 279.328 342.133C276.333 333.474 274.836 323.708 274.836 312.836V307.074C274.836 296.202 276.333 286.436 279.328 277.777C282.388 269.118 286.652 261.762 292.121 255.707C297.655 249.587 304.198 244.932 311.75 241.742C319.367 238.487 327.766 236.859 336.945 236.859C346.06 236.859 354.393 238.487 361.945 241.742C369.562 244.932 376.138 249.587 381.672 255.707C387.206 261.762 391.503 269.118 394.562 277.777C397.622 286.436 399.152 296.202 399.152 307.074ZM364.387 312.836V306.879C364.387 299.848 363.768 293.663 362.531 288.324C361.359 282.921 359.602 278.396 357.258 274.75C354.914 271.104 352.017 268.37 348.566 266.547C345.181 264.659 341.307 263.715 336.945 263.715C332.388 263.715 328.417 264.659 325.031 266.547C321.646 268.37 318.814 271.104 316.535 274.75C314.257 278.396 312.531 282.921 311.359 288.324C310.253 293.663 309.699 299.848 309.699 306.879V312.836C309.699 319.802 310.253 325.987 311.359 331.391C312.531 336.729 314.257 341.254 316.535 344.965C318.879 348.676 321.743 351.475 325.129 353.363C328.579 355.251 332.583 356.195 337.141 356.195C341.503 356.195 345.376 355.251 348.762 353.363C352.147 351.475 354.979 348.676 357.258 344.965C359.602 341.254 361.359 336.729 362.531 331.391C363.768 325.987 364.387 319.802 364.387 312.836Z" stroke="white" stroke-width="60" stroke-linejoin="round" mask="url(#path-4-outside-1_6_26)"/>
<path d="M477.082 355.316V275.336H510.09V381H479.23L477.082 355.316ZM480.207 333.832L488.801 333.637C488.801 340.733 487.954 347.309 486.262 353.363C484.569 359.353 482.062 364.561 478.742 368.988C475.487 373.415 471.451 376.866 466.633 379.34C461.88 381.749 456.379 382.953 450.129 382.953C444.921 382.953 440.135 382.237 435.773 380.805C431.477 379.307 427.766 376.996 424.641 373.871C421.516 370.681 419.074 366.612 417.316 361.664C415.624 356.651 414.777 350.661 414.777 343.695V275.336H447.688V343.891C447.688 346.234 447.98 348.253 448.566 349.945C449.152 351.638 449.999 353.07 451.105 354.242C452.212 355.349 453.579 356.195 455.207 356.781C456.9 357.302 458.82 357.562 460.969 357.562C465.917 357.562 469.79 356.521 472.59 354.438C475.389 352.354 477.342 349.522 478.449 345.941C479.621 342.361 480.207 338.324 480.207 333.832Z" stroke="white" stroke-width="60" stroke-linejoin="round" mask="url(#path-4-outside-1_6_26)"/>
<path d="M583.918 275.336V298.188H520.246V275.336H583.918ZM533.625 249.066H566.535V346.527C566.535 349.327 566.861 351.508 567.512 353.07C568.163 354.568 569.27 355.642 570.832 356.293C572.46 356.879 574.608 357.172 577.277 357.172C579.165 357.172 580.728 357.139 581.965 357.074C583.202 356.944 584.374 356.781 585.48 356.586V380.121C582.681 381.033 579.751 381.716 576.691 382.172C573.632 382.693 570.376 382.953 566.926 382.953C559.895 382.953 553.872 381.846 548.859 379.633C543.911 377.419 540.135 373.936 537.531 369.184C534.927 364.431 533.625 358.246 533.625 350.629V249.066Z" stroke="white" stroke-width="60" stroke-linejoin="round" mask="url(#path-4-outside-1_6_26)"/>
<path d="M637.727 381H604.621V272.602C604.621 263.161 606.574 255.219 610.48 248.773C614.452 242.263 620.148 237.348 627.57 234.027C634.992 230.642 643.977 228.949 654.523 228.949C660.513 228.949 666.275 229.47 671.809 230.512C677.342 231.553 683.072 232.921 688.996 234.613L684.406 260.59C680.565 259.548 676.529 258.572 672.297 257.66C668.13 256.749 662.889 256.293 656.574 256.293C650.65 256.293 646.027 257.693 642.707 260.492C639.387 263.292 637.727 267.328 637.727 272.602V381ZM658.43 275.336V298.188H589.387V275.336H658.43ZM704.035 275.336V381H671.027V275.336H704.035Z" stroke="white" stroke-width="60" stroke-linejoin="round" mask="url(#path-4-outside-1_6_26)"/>
<path d="M780.012 275.336V298.188H716.34V275.336H780.012ZM729.719 249.066H762.629V346.527C762.629 349.327 762.954 351.508 763.605 353.07C764.257 354.568 765.363 355.642 766.926 356.293C768.553 356.879 770.702 357.172 773.371 357.172C775.259 357.172 776.822 357.139 778.059 357.074C779.296 356.944 780.467 356.781 781.574 356.586V380.121C778.775 381.033 775.845 381.716 772.785 382.172C769.725 382.693 766.47 382.953 763.02 382.953C755.988 382.953 749.966 381.846 744.953 379.633C740.005 377.419 736.229 373.936 733.625 369.184C731.021 364.431 729.719 358.246 729.719 350.629V249.066Z" stroke="white" stroke-width="60" stroke-linejoin="round" mask="url(#path-4-outside-1_6_26)"/>
</svg>
