<svg width="797" height="404" viewBox="0 0 797 404" fill="none" xmlns="http://www.w3.org/2000/svg">
<rect x="197.5" y="275.5" width="592" height="121" rx="32.5" fill="white" stroke="white" stroke-width="15"/>
<rect x="197.5" y="185.5" width="255" height="211" rx="78.5" fill="white" stroke="white" stroke-width="15"/>
<path d="M157.305 17.4028C145.954 21.1544 136.538 29.1878 131.183 39.7735L117.87 66.0899C114.869 72.0226 114.418 78.8446 116.554 85.0369C118.686 91.2206 123.22 96.2734 129.121 99.1337C132.727 100.882 135.441 103.945 136.701 107.601C137.959 111.247 137.672 115.181 135.965 118.554C134.259 121.928 131.237 124.536 127.511 125.767C123.777 127.001 119.643 126.745 116.037 124.997C110.136 122.137 103.283 121.67 96.9656 123.757C90.6396 125.848 85.37 130.334 82.3688 136.267L69.0558 162.583C63.7006 173.169 62.8803 185.369 66.7128 196.481C70.5423 207.584 78.6996 216.695 89.3537 221.859L322.351 334.802C333.005 339.966 345.352 340.795 356.695 337.046C368.046 333.294 377.462 325.261 382.817 314.675L396.13 288.359C399.131 282.426 399.582 275.604 397.446 269.412C395.314 263.228 390.78 258.175 384.879 255.315C381.273 253.567 378.559 250.503 377.299 246.848C376.041 243.202 376.328 239.268 378.035 235.895C379.741 232.521 382.763 229.913 386.489 228.682C390.223 227.448 394.357 227.704 397.963 229.452C403.864 232.312 410.717 232.779 417.034 230.691C423.36 228.601 428.63 224.114 431.631 218.182L444.944 191.865C450.299 181.28 451.12 169.08 447.287 157.968C443.458 146.865 435.3 137.754 424.646 132.59L191.649 19.6471C180.995 14.4826 168.648 13.6542 157.305 17.4028ZM198.584 152.494C198.174 151.307 198.277 150.063 198.806 149.016C199.336 147.969 200.285 147.135 201.498 146.734C202.719 146.33 204.106 146.405 205.336 147.001L312.873 199.129C314.102 199.725 315.004 200.759 315.416 201.955C315.826 203.142 315.723 204.386 315.194 205.433C314.664 206.48 313.715 207.314 312.502 207.715C311.281 208.119 309.894 208.044 308.664 207.448L201.127 155.32C199.898 154.724 198.996 153.69 198.584 152.494Z" fill="#00A3FF" stroke="white" stroke-width="30"/>
<path d="M28.294 175.106C19.8206 183.401 15 194.719 15 206.591V235.957C15 242.636 17.7135 248.975 22.4361 253.598C27.1479 258.21 33.4717 260.746 40 260.746C44.0804 260.746 47.9308 262.336 50.7204 265.066C53.4992 267.786 55 271.407 55 275.112C55 278.818 53.4992 282.438 50.7204 285.158C47.9308 287.889 44.0804 289.479 40 289.479C33.4717 289.479 27.148 292.014 22.4361 296.626C17.7135 301.249 15 307.588 15 314.267V343.634C15 355.505 19.8206 366.824 28.294 375.118C36.7565 383.402 48.1674 388 60 388H320C331.833 388 343.243 383.402 351.706 375.118C360.179 366.824 365 355.505 365 343.634V314.267C365 307.588 362.287 301.249 357.564 296.626C352.852 292.014 346.528 289.479 340 289.479C335.92 289.479 332.069 287.889 329.28 285.158C326.501 282.438 325 278.818 325 275.112C325 271.407 326.501 267.786 329.28 265.066C332.069 262.336 335.92 260.746 340 260.746C346.528 260.746 352.852 258.21 357.564 253.598C362.287 248.975 365 242.636 365 235.957V206.591C365 194.719 360.179 183.401 351.706 175.106C343.243 166.823 331.833 162.224 320 162.224H60C48.1674 162.224 36.7565 166.823 28.294 175.106ZM126.351 278.236C125.447 277.352 125 276.222 125 275.112C125 274.003 125.447 272.872 126.351 271.988C127.265 271.093 128.572 270.535 130 270.535H250C251.428 270.535 252.735 271.093 253.649 271.988C254.553 272.872 255 274.003 255 275.112C255 276.222 254.553 277.352 253.649 278.236C252.735 279.131 251.428 279.69 250 279.69H130C128.572 279.69 127.265 279.131 126.351 278.236Z" fill="#00A3FF" stroke="white" stroke-width="30"/>
<mask id="path-5-outside-1_5_13" maskUnits="userSpaceOnUse" x="183.008" y="191" width="614" height="212" fill="black">
<rect fill="white" x="183.008" y="191" width="614" height="212"/>
<path d="M332.148 295.023V353.422C329.74 356.091 326.029 358.956 321.016 362.016C316.068 365.01 309.818 367.582 302.266 369.73C294.714 371.879 285.827 372.953 275.605 372.953C266.165 372.953 257.604 371.456 249.922 368.461C242.24 365.401 235.632 360.941 230.098 355.082C224.629 349.158 220.397 341.931 217.402 333.402C214.473 324.809 213.008 314.978 213.008 303.91V296C213.008 284.932 214.505 275.102 217.5 266.508C220.495 257.914 224.694 250.688 230.098 244.828C235.566 238.904 241.979 234.411 249.336 231.352C256.758 228.292 264.896 226.762 273.75 226.762C286.836 226.762 297.48 228.845 305.684 233.012C313.887 237.113 320.104 242.81 324.336 250.102C328.568 257.328 331.139 265.694 332.051 275.199H299.141C298.49 270.512 297.253 266.54 295.43 263.285C293.672 259.965 291.133 257.458 287.812 255.766C284.492 254.008 280.195 253.129 274.922 253.129C270.82 253.129 267.077 254.008 263.691 255.766C260.371 257.523 257.539 260.193 255.195 263.773C252.852 267.289 251.029 271.716 249.727 277.055C248.49 282.393 247.871 288.643 247.871 295.805V303.91C247.871 311.007 248.457 317.224 249.629 322.562C250.866 327.901 252.689 332.361 255.098 335.941C257.572 339.457 260.697 342.126 264.473 343.949C268.314 345.707 272.839 346.586 278.047 346.586C281.693 346.586 284.818 346.293 287.422 345.707C290.026 345.056 292.174 344.275 293.867 343.363C295.625 342.387 296.96 341.475 297.871 340.629V318.559H274.043V295.023H332.148Z"/>
<path d="M405.488 344.438V300.883C405.488 297.888 405.065 295.316 404.219 293.168C403.372 291.02 402.038 289.359 400.215 288.188C398.392 286.951 395.951 286.332 392.891 286.332C390.417 286.332 388.301 286.755 386.543 287.602C384.785 288.448 383.451 289.717 382.539 291.41C381.628 293.103 381.172 295.251 381.172 297.855H348.262C348.262 292.973 349.336 288.448 351.484 284.281C353.698 280.049 356.823 276.371 360.859 273.246C364.961 270.121 369.844 267.712 375.508 266.02C381.237 264.262 387.617 263.383 394.648 263.383C403.047 263.383 410.534 264.783 417.109 267.582C423.75 270.382 428.991 274.581 432.832 280.18C436.673 285.714 438.594 292.68 438.594 301.078V344.34C438.594 351.241 438.984 356.482 439.766 360.062C440.547 363.578 441.654 366.671 443.086 369.34V371H410.078C408.516 367.745 407.344 363.773 406.562 359.086C405.846 354.333 405.488 349.451 405.488 344.438ZM409.492 306.449L409.688 324.027H395.137C392.077 324.027 389.473 324.451 387.324 325.297C385.241 326.143 383.548 327.315 382.246 328.812C381.009 330.245 380.098 331.872 379.512 333.695C378.991 335.518 378.73 337.439 378.73 339.457C378.73 341.41 379.186 343.168 380.098 344.73C381.074 346.228 382.376 347.4 384.004 348.246C385.632 349.092 387.454 349.516 389.473 349.516C393.118 349.516 396.211 348.832 398.75 347.465C401.354 346.033 403.34 344.307 404.707 342.289C406.074 340.271 406.758 338.383 406.758 336.625L413.984 350.102C412.682 352.706 411.185 355.342 409.492 358.012C407.865 360.681 405.814 363.155 403.34 365.434C400.931 367.647 397.969 369.47 394.453 370.902C390.938 372.27 386.673 372.953 381.66 372.953C375.15 372.953 369.16 371.618 363.691 368.949C358.288 366.28 353.958 362.569 350.703 357.816C347.448 352.999 345.82 347.465 345.82 341.215C345.82 335.746 346.797 330.863 348.75 326.566C350.768 322.27 353.796 318.624 357.832 315.629C361.868 312.634 367.012 310.355 373.262 308.793C379.512 307.23 386.868 306.449 395.332 306.449H409.492Z"/>
<path d="M501.484 347.562C504.544 347.562 507.148 347.009 509.297 345.902C511.51 344.73 513.171 343.103 514.277 341.02C515.449 338.871 516.003 336.299 515.938 333.305H546.895C546.96 341.247 545.007 348.214 541.035 354.203C537.129 360.128 531.79 364.75 525.02 368.07C518.314 371.326 510.729 372.953 502.266 372.953C493.997 372.953 486.771 371.618 480.586 368.949C474.401 366.215 469.225 362.439 465.059 357.621C460.957 352.738 457.865 347.042 455.781 340.531C453.763 334.021 452.754 326.957 452.754 319.34V317.094C452.754 309.477 453.763 302.413 455.781 295.902C457.865 289.327 460.957 283.63 465.059 278.812C469.225 273.93 474.368 270.154 480.488 267.484C486.673 264.75 493.867 263.383 502.07 263.383C510.859 263.383 518.607 265.043 525.312 268.363C532.083 271.684 537.389 276.501 541.23 282.816C545.072 289.132 546.96 296.781 546.895 305.766H515.938C516.003 302.576 515.514 299.711 514.473 297.172C513.431 294.633 511.803 292.615 509.59 291.117C507.441 289.555 504.674 288.773 501.289 288.773C497.904 288.773 495.169 289.522 493.086 291.02C491.003 292.517 489.408 294.6 488.301 297.27C487.259 299.874 486.543 302.868 486.152 306.254C485.827 309.639 485.664 313.253 485.664 317.094V319.34C485.664 323.246 485.827 326.924 486.152 330.375C486.543 333.76 487.292 336.755 488.398 339.359C489.505 341.898 491.1 343.917 493.184 345.414C495.267 346.846 498.034 347.562 501.484 347.562Z"/>
<path d="M593.184 221V371H560.273V221H593.184ZM589.277 314.555L581.562 314.75C581.562 307.328 582.474 300.492 584.297 294.242C586.12 287.992 588.724 282.556 592.109 277.934C595.495 273.311 599.564 269.73 604.316 267.191C609.069 264.652 614.342 263.383 620.137 263.383C625.345 263.383 630.098 264.132 634.395 265.629C638.757 267.126 642.5 269.535 645.625 272.855C648.815 276.176 651.257 280.505 652.949 285.844C654.707 291.182 655.586 297.693 655.586 305.375V371H622.48V305.18C622.48 300.883 621.862 297.562 620.625 295.219C619.453 292.81 617.76 291.15 615.547 290.238C613.333 289.262 610.632 288.773 607.441 288.773C603.6 288.773 600.475 289.424 598.066 290.727C595.658 292.029 593.802 293.852 592.5 296.195C591.263 298.474 590.417 301.176 589.961 304.301C589.505 307.426 589.277 310.844 589.277 314.555Z"/>
<path d="M728.73 344.438V300.883C728.73 297.888 728.307 295.316 727.461 293.168C726.615 291.02 725.28 289.359 723.457 288.188C721.634 286.951 719.193 286.332 716.133 286.332C713.659 286.332 711.543 286.755 709.785 287.602C708.027 288.448 706.693 289.717 705.781 291.41C704.87 293.103 704.414 295.251 704.414 297.855H671.504C671.504 292.973 672.578 288.448 674.727 284.281C676.94 280.049 680.065 276.371 684.102 273.246C688.203 270.121 693.086 267.712 698.75 266.02C704.479 264.262 710.859 263.383 717.891 263.383C726.289 263.383 733.776 264.783 740.352 267.582C746.992 270.382 752.233 274.581 756.074 280.18C759.915 285.714 761.836 292.68 761.836 301.078V344.34C761.836 351.241 762.227 356.482 763.008 360.062C763.789 363.578 764.896 366.671 766.328 369.34V371H733.32C731.758 367.745 730.586 363.773 729.805 359.086C729.089 354.333 728.73 349.451 728.73 344.438ZM732.734 306.449L732.93 324.027H718.379C715.319 324.027 712.715 324.451 710.566 325.297C708.483 326.143 706.79 327.315 705.488 328.812C704.251 330.245 703.34 331.872 702.754 333.695C702.233 335.518 701.973 337.439 701.973 339.457C701.973 341.41 702.428 343.168 703.34 344.73C704.316 346.228 705.618 347.4 707.246 348.246C708.874 349.092 710.697 349.516 712.715 349.516C716.361 349.516 719.453 348.832 721.992 347.465C724.596 346.033 726.582 344.307 727.949 342.289C729.316 340.271 730 338.383 730 336.625L737.227 350.102C735.924 352.706 734.427 355.342 732.734 358.012C731.107 360.681 729.056 363.155 726.582 365.434C724.173 367.647 721.211 369.47 717.695 370.902C714.18 372.27 709.915 372.953 704.902 372.953C698.392 372.953 692.402 371.618 686.934 368.949C681.53 366.28 677.201 362.569 673.945 357.816C670.69 352.999 669.062 347.465 669.062 341.215C669.062 335.746 670.039 330.863 671.992 326.566C674.01 322.27 677.038 318.624 681.074 315.629C685.111 312.634 690.254 310.355 696.504 308.793C702.754 307.23 710.111 306.449 718.574 306.449H732.734Z"/>
</mask>
<path d="M332.148 295.023V353.422C329.74 356.091 326.029 358.956 321.016 362.016C316.068 365.01 309.818 367.582 302.266 369.73C294.714 371.879 285.827 372.953 275.605 372.953C266.165 372.953 257.604 371.456 249.922 368.461C242.24 365.401 235.632 360.941 230.098 355.082C224.629 349.158 220.397 341.931 217.402 333.402C214.473 324.809 213.008 314.978 213.008 303.91V296C213.008 284.932 214.505 275.102 217.5 266.508C220.495 257.914 224.694 250.688 230.098 244.828C235.566 238.904 241.979 234.411 249.336 231.352C256.758 228.292 264.896 226.762 273.75 226.762C286.836 226.762 297.48 228.845 305.684 233.012C313.887 237.113 320.104 242.81 324.336 250.102C328.568 257.328 331.139 265.694 332.051 275.199H299.141C298.49 270.512 297.253 266.54 295.43 263.285C293.672 259.965 291.133 257.458 287.812 255.766C284.492 254.008 280.195 253.129 274.922 253.129C270.82 253.129 267.077 254.008 263.691 255.766C260.371 257.523 257.539 260.193 255.195 263.773C252.852 267.289 251.029 271.716 249.727 277.055C248.49 282.393 247.871 288.643 247.871 295.805V303.91C247.871 311.007 248.457 317.224 249.629 322.562C250.866 327.901 252.689 332.361 255.098 335.941C257.572 339.457 260.697 342.126 264.473 343.949C268.314 345.707 272.839 346.586 278.047 346.586C281.693 346.586 284.818 346.293 287.422 345.707C290.026 345.056 292.174 344.275 293.867 343.363C295.625 342.387 296.96 341.475 297.871 340.629V318.559H274.043V295.023H332.148Z" fill="#00A3FF"/>
<path d="M405.488 344.438V300.883C405.488 297.888 405.065 295.316 404.219 293.168C403.372 291.02 402.038 289.359 400.215 288.188C398.392 286.951 395.951 286.332 392.891 286.332C390.417 286.332 388.301 286.755 386.543 287.602C384.785 288.448 383.451 289.717 382.539 291.41C381.628 293.103 381.172 295.251 381.172 297.855H348.262C348.262 292.973 349.336 288.448 351.484 284.281C353.698 280.049 356.823 276.371 360.859 273.246C364.961 270.121 369.844 267.712 375.508 266.02C381.237 264.262 387.617 263.383 394.648 263.383C403.047 263.383 410.534 264.783 417.109 267.582C423.75 270.382 428.991 274.581 432.832 280.18C436.673 285.714 438.594 292.68 438.594 301.078V344.34C438.594 351.241 438.984 356.482 439.766 360.062C440.547 363.578 441.654 366.671 443.086 369.34V371H410.078C408.516 367.745 407.344 363.773 406.562 359.086C405.846 354.333 405.488 349.451 405.488 344.438ZM409.492 306.449L409.688 324.027H395.137C392.077 324.027 389.473 324.451 387.324 325.297C385.241 326.143 383.548 327.315 382.246 328.812C381.009 330.245 380.098 331.872 379.512 333.695C378.991 335.518 378.73 337.439 378.73 339.457C378.73 341.41 379.186 343.168 380.098 344.73C381.074 346.228 382.376 347.4 384.004 348.246C385.632 349.092 387.454 349.516 389.473 349.516C393.118 349.516 396.211 348.832 398.75 347.465C401.354 346.033 403.34 344.307 404.707 342.289C406.074 340.271 406.758 338.383 406.758 336.625L413.984 350.102C412.682 352.706 411.185 355.342 409.492 358.012C407.865 360.681 405.814 363.155 403.34 365.434C400.931 367.647 397.969 369.47 394.453 370.902C390.938 372.27 386.673 372.953 381.66 372.953C375.15 372.953 369.16 371.618 363.691 368.949C358.288 366.28 353.958 362.569 350.703 357.816C347.448 352.999 345.82 347.465 345.82 341.215C345.82 335.746 346.797 330.863 348.75 326.566C350.768 322.27 353.796 318.624 357.832 315.629C361.868 312.634 367.012 310.355 373.262 308.793C379.512 307.23 386.868 306.449 395.332 306.449H409.492Z" fill="#00A3FF"/>
<path d="M501.484 347.562C504.544 347.562 507.148 347.009 509.297 345.902C511.51 344.73 513.171 343.103 514.277 341.02C515.449 338.871 516.003 336.299 515.938 333.305H546.895C546.96 341.247 545.007 348.214 541.035 354.203C537.129 360.128 531.79 364.75 525.02 368.07C518.314 371.326 510.729 372.953 502.266 372.953C493.997 372.953 486.771 371.618 480.586 368.949C474.401 366.215 469.225 362.439 465.059 357.621C460.957 352.738 457.865 347.042 455.781 340.531C453.763 334.021 452.754 326.957 452.754 319.34V317.094C452.754 309.477 453.763 302.413 455.781 295.902C457.865 289.327 460.957 283.63 465.059 278.812C469.225 273.93 474.368 270.154 480.488 267.484C486.673 264.75 493.867 263.383 502.07 263.383C510.859 263.383 518.607 265.043 525.312 268.363C532.083 271.684 537.389 276.501 541.23 282.816C545.072 289.132 546.96 296.781 546.895 305.766H515.938C516.003 302.576 515.514 299.711 514.473 297.172C513.431 294.633 511.803 292.615 509.59 291.117C507.441 289.555 504.674 288.773 501.289 288.773C497.904 288.773 495.169 289.522 493.086 291.02C491.003 292.517 489.408 294.6 488.301 297.27C487.259 299.874 486.543 302.868 486.152 306.254C485.827 309.639 485.664 313.253 485.664 317.094V319.34C485.664 323.246 485.827 326.924 486.152 330.375C486.543 333.76 487.292 336.755 488.398 339.359C489.505 341.898 491.1 343.917 493.184 345.414C495.267 346.846 498.034 347.562 501.484 347.562Z" fill="#00A3FF"/>
<path d="M593.184 221V371H560.273V221H593.184ZM589.277 314.555L581.562 314.75C581.562 307.328 582.474 300.492 584.297 294.242C586.12 287.992 588.724 282.556 592.109 277.934C595.495 273.311 599.564 269.73 604.316 267.191C609.069 264.652 614.342 263.383 620.137 263.383C625.345 263.383 630.098 264.132 634.395 265.629C638.757 267.126 642.5 269.535 645.625 272.855C648.815 276.176 651.257 280.505 652.949 285.844C654.707 291.182 655.586 297.693 655.586 305.375V371H622.48V305.18C622.48 300.883 621.862 297.562 620.625 295.219C619.453 292.81 617.76 291.15 615.547 290.238C613.333 289.262 610.632 288.773 607.441 288.773C603.6 288.773 600.475 289.424 598.066 290.727C595.658 292.029 593.802 293.852 592.5 296.195C591.263 298.474 590.417 301.176 589.961 304.301C589.505 307.426 589.277 310.844 589.277 314.555Z" fill="#00A3FF"/>
<path d="M728.73 344.438V300.883C728.73 297.888 728.307 295.316 727.461 293.168C726.615 291.02 725.28 289.359 723.457 288.188C721.634 286.951 719.193 286.332 716.133 286.332C713.659 286.332 711.543 286.755 709.785 287.602C708.027 288.448 706.693 289.717 705.781 291.41C704.87 293.103 704.414 295.251 704.414 297.855H671.504C671.504 292.973 672.578 288.448 674.727 284.281C676.94 280.049 680.065 276.371 684.102 273.246C688.203 270.121 693.086 267.712 698.75 266.02C704.479 264.262 710.859 263.383 717.891 263.383C726.289 263.383 733.776 264.783 740.352 267.582C746.992 270.382 752.233 274.581 756.074 280.18C759.915 285.714 761.836 292.68 761.836 301.078V344.34C761.836 351.241 762.227 356.482 763.008 360.062C763.789 363.578 764.896 366.671 766.328 369.34V371H733.32C731.758 367.745 730.586 363.773 729.805 359.086C729.089 354.333 728.73 349.451 728.73 344.438ZM732.734 306.449L732.93 324.027H718.379C715.319 324.027 712.715 324.451 710.566 325.297C708.483 326.143 706.79 327.315 705.488 328.812C704.251 330.245 703.34 331.872 702.754 333.695C702.233 335.518 701.973 337.439 701.973 339.457C701.973 341.41 702.428 343.168 703.34 344.73C704.316 346.228 705.618 347.4 707.246 348.246C708.874 349.092 710.697 349.516 712.715 349.516C716.361 349.516 719.453 348.832 721.992 347.465C724.596 346.033 726.582 344.307 727.949 342.289C729.316 340.271 730 338.383 730 336.625L737.227 350.102C735.924 352.706 734.427 355.342 732.734 358.012C731.107 360.681 729.056 363.155 726.582 365.434C724.173 367.647 721.211 369.47 717.695 370.902C714.18 372.27 709.915 372.953 704.902 372.953C698.392 372.953 692.402 371.618 686.934 368.949C681.53 366.28 677.201 362.569 673.945 357.816C670.69 352.999 669.062 347.465 669.062 341.215C669.062 335.746 670.039 330.863 671.992 326.566C674.01 322.27 677.038 318.624 681.074 315.629C685.111 312.634 690.254 310.355 696.504 308.793C702.754 307.23 710.111 306.449 718.574 306.449H732.734Z" fill="#00A3FF"/>
<path d="M332.148 295.023V353.422C329.74 356.091 326.029 358.956 321.016 362.016C316.068 365.01 309.818 367.582 302.266 369.73C294.714 371.879 285.827 372.953 275.605 372.953C266.165 372.953 257.604 371.456 249.922 368.461C242.24 365.401 235.632 360.941 230.098 355.082C224.629 349.158 220.397 341.931 217.402 333.402C214.473 324.809 213.008 314.978 213.008 303.91V296C213.008 284.932 214.505 275.102 217.5 266.508C220.495 257.914 224.694 250.688 230.098 244.828C235.566 238.904 241.979 234.411 249.336 231.352C256.758 228.292 264.896 226.762 273.75 226.762C286.836 226.762 297.48 228.845 305.684 233.012C313.887 237.113 320.104 242.81 324.336 250.102C328.568 257.328 331.139 265.694 332.051 275.199H299.141C298.49 270.512 297.253 266.54 295.43 263.285C293.672 259.965 291.133 257.458 287.812 255.766C284.492 254.008 280.195 253.129 274.922 253.129C270.82 253.129 267.077 254.008 263.691 255.766C260.371 257.523 257.539 260.193 255.195 263.773C252.852 267.289 251.029 271.716 249.727 277.055C248.49 282.393 247.871 288.643 247.871 295.805V303.91C247.871 311.007 248.457 317.224 249.629 322.562C250.866 327.901 252.689 332.361 255.098 335.941C257.572 339.457 260.697 342.126 264.473 343.949C268.314 345.707 272.839 346.586 278.047 346.586C281.693 346.586 284.818 346.293 287.422 345.707C290.026 345.056 292.174 344.275 293.867 343.363C295.625 342.387 296.96 341.475 297.871 340.629V318.559H274.043V295.023H332.148Z" stroke="white" stroke-width="60" stroke-linejoin="round" mask="url(#path-5-outside-1_5_13)"/>
<path d="M405.488 344.438V300.883C405.488 297.888 405.065 295.316 404.219 293.168C403.372 291.02 402.038 289.359 400.215 288.188C398.392 286.951 395.951 286.332 392.891 286.332C390.417 286.332 388.301 286.755 386.543 287.602C384.785 288.448 383.451 289.717 382.539 291.41C381.628 293.103 381.172 295.251 381.172 297.855H348.262C348.262 292.973 349.336 288.448 351.484 284.281C353.698 280.049 356.823 276.371 360.859 273.246C364.961 270.121 369.844 267.712 375.508 266.02C381.237 264.262 387.617 263.383 394.648 263.383C403.047 263.383 410.534 264.783 417.109 267.582C423.75 270.382 428.991 274.581 432.832 280.18C436.673 285.714 438.594 292.68 438.594 301.078V344.34C438.594 351.241 438.984 356.482 439.766 360.062C440.547 363.578 441.654 366.671 443.086 369.34V371H410.078C408.516 367.745 407.344 363.773 406.562 359.086C405.846 354.333 405.488 349.451 405.488 344.438ZM409.492 306.449L409.688 324.027H395.137C392.077 324.027 389.473 324.451 387.324 325.297C385.241 326.143 383.548 327.315 382.246 328.812C381.009 330.245 380.098 331.872 379.512 333.695C378.991 335.518 378.73 337.439 378.73 339.457C378.73 341.41 379.186 343.168 380.098 344.73C381.074 346.228 382.376 347.4 384.004 348.246C385.632 349.092 387.454 349.516 389.473 349.516C393.118 349.516 396.211 348.832 398.75 347.465C401.354 346.033 403.34 344.307 404.707 342.289C406.074 340.271 406.758 338.383 406.758 336.625L413.984 350.102C412.682 352.706 411.185 355.342 409.492 358.012C407.865 360.681 405.814 363.155 403.34 365.434C400.931 367.647 397.969 369.47 394.453 370.902C390.938 372.27 386.673 372.953 381.66 372.953C375.15 372.953 369.16 371.618 363.691 368.949C358.288 366.28 353.958 362.569 350.703 357.816C347.448 352.999 345.82 347.465 345.82 341.215C345.82 335.746 346.797 330.863 348.75 326.566C350.768 322.27 353.796 318.624 357.832 315.629C361.868 312.634 367.012 310.355 373.262 308.793C379.512 307.23 386.868 306.449 395.332 306.449H409.492Z" stroke="white" stroke-width="60" stroke-linejoin="round" mask="url(#path-5-outside-1_5_13)"/>
<path d="M501.484 347.562C504.544 347.562 507.148 347.009 509.297 345.902C511.51 344.73 513.171 343.103 514.277 341.02C515.449 338.871 516.003 336.299 515.938 333.305H546.895C546.96 341.247 545.007 348.214 541.035 354.203C537.129 360.128 531.79 364.75 525.02 368.07C518.314 371.326 510.729 372.953 502.266 372.953C493.997 372.953 486.771 371.618 480.586 368.949C474.401 366.215 469.225 362.439 465.059 357.621C460.957 352.738 457.865 347.042 455.781 340.531C453.763 334.021 452.754 326.957 452.754 319.34V317.094C452.754 309.477 453.763 302.413 455.781 295.902C457.865 289.327 460.957 283.63 465.059 278.812C469.225 273.93 474.368 270.154 480.488 267.484C486.673 264.75 493.867 263.383 502.07 263.383C510.859 263.383 518.607 265.043 525.312 268.363C532.083 271.684 537.389 276.501 541.23 282.816C545.072 289.132 546.96 296.781 546.895 305.766H515.938C516.003 302.576 515.514 299.711 514.473 297.172C513.431 294.633 511.803 292.615 509.59 291.117C507.441 289.555 504.674 288.773 501.289 288.773C497.904 288.773 495.169 289.522 493.086 291.02C491.003 292.517 489.408 294.6 488.301 297.27C487.259 299.874 486.543 302.868 486.152 306.254C485.827 309.639 485.664 313.253 485.664 317.094V319.34C485.664 323.246 485.827 326.924 486.152 330.375C486.543 333.76 487.292 336.755 488.398 339.359C489.505 341.898 491.1 343.917 493.184 345.414C495.267 346.846 498.034 347.562 501.484 347.562Z" stroke="white" stroke-width="60" stroke-linejoin="round" mask="url(#path-5-outside-1_5_13)"/>
<path d="M593.184 221V371H560.273V221H593.184ZM589.277 314.555L581.562 314.75C581.562 307.328 582.474 300.492 584.297 294.242C586.12 287.992 588.724 282.556 592.109 277.934C595.495 273.311 599.564 269.73 604.316 267.191C609.069 264.652 614.342 263.383 620.137 263.383C625.345 263.383 630.098 264.132 634.395 265.629C638.757 267.126 642.5 269.535 645.625 272.855C648.815 276.176 651.257 280.505 652.949 285.844C654.707 291.182 655.586 297.693 655.586 305.375V371H622.48V305.18C622.48 300.883 621.862 297.562 620.625 295.219C619.453 292.81 617.76 291.15 615.547 290.238C613.333 289.262 610.632 288.773 607.441 288.773C603.6 288.773 600.475 289.424 598.066 290.727C595.658 292.029 593.802 293.852 592.5 296.195C591.263 298.474 590.417 301.176 589.961 304.301C589.505 307.426 589.277 310.844 589.277 314.555Z" stroke="white" stroke-width="60" stroke-linejoin="round" mask="url(#path-5-outside-1_5_13)"/>
<path d="M728.73 344.438V300.883C728.73 297.888 728.307 295.316 727.461 293.168C726.615 291.02 725.28 289.359 723.457 288.188C721.634 286.951 719.193 286.332 716.133 286.332C713.659 286.332 711.543 286.755 709.785 287.602C708.027 288.448 706.693 289.717 705.781 291.41C704.87 293.103 704.414 295.251 704.414 297.855H671.504C671.504 292.973 672.578 288.448 674.727 284.281C676.94 280.049 680.065 276.371 684.102 273.246C688.203 270.121 693.086 267.712 698.75 266.02C704.479 264.262 710.859 263.383 717.891 263.383C726.289 263.383 733.776 264.783 740.352 267.582C746.992 270.382 752.233 274.581 756.074 280.18C759.915 285.714 761.836 292.68 761.836 301.078V344.34C761.836 351.241 762.227 356.482 763.008 360.062C763.789 363.578 764.896 366.671 766.328 369.34V371H733.32C731.758 367.745 730.586 363.773 729.805 359.086C729.089 354.333 728.73 349.451 728.73 344.438ZM732.734 306.449L732.93 324.027H718.379C715.319 324.027 712.715 324.451 710.566 325.297C708.483 326.143 706.79 327.315 705.488 328.812C704.251 330.245 703.34 331.872 702.754 333.695C702.233 335.518 701.973 337.439 701.973 339.457C701.973 341.41 702.428 343.168 703.34 344.73C704.316 346.228 705.618 347.4 707.246 348.246C708.874 349.092 710.697 349.516 712.715 349.516C716.361 349.516 719.453 348.832 721.992 347.465C724.596 346.033 726.582 344.307 727.949 342.289C729.316 340.271 730 338.383 730 336.625L737.227 350.102C735.924 352.706 734.427 355.342 732.734 358.012C731.107 360.681 729.056 363.155 726.582 365.434C724.173 367.647 721.211 369.47 717.695 370.902C714.18 372.27 709.915 372.953 704.902 372.953C698.392 372.953 692.402 371.618 686.934 368.949C681.53 366.28 677.201 362.569 673.945 357.816C670.69 352.999 669.062 347.465 669.062 341.215C669.062 335.746 670.039 330.863 671.992 326.566C674.01 322.27 677.038 318.624 681.074 315.629C685.111 312.634 690.254 310.355 696.504 308.793C702.754 307.23 710.111 306.449 718.574 306.449H732.734Z" stroke="white" stroke-width="60" stroke-linejoin="round" mask="url(#path-5-outside-1_5_13)"/>
</svg>
