<svg width="1030" height="401" viewBox="0 0 1030 401" fill="none" xmlns="http://www.w3.org/2000/svg">
<rect x="7.5" y="7.5" width="1015" height="385.787" rx="78.5" fill="#E78A00" stroke="#C43B00" stroke-width="15"/>
<rect x="51" y="15" width="928" height="317" rx="71" fill="#FFB802"/>
<path d="M184.84 98.8125H240.797C251.734 98.8125 261.24 100.44 269.312 103.695C277.385 106.951 283.603 111.768 287.965 118.148C292.392 124.529 294.605 132.406 294.605 141.781C294.605 149.919 293.336 156.723 290.797 162.191C288.258 167.66 284.71 172.185 280.152 175.766C275.66 179.281 270.419 182.178 264.43 184.457L253.199 190.805H206.227L206.031 164.34H240.797C245.159 164.34 248.772 163.559 251.637 161.996C254.501 160.434 256.65 158.22 258.082 155.355C259.579 152.426 260.328 148.943 260.328 144.906C260.328 140.805 259.579 137.289 258.082 134.359C256.585 131.43 254.371 129.184 251.441 127.621C248.577 126.059 245.029 125.277 240.797 125.277H219.117V241H184.84V98.8125ZM262.672 241L231.227 178.109L267.555 177.914L299.391 239.535V241H262.672ZM309.645 189.242V187.191C309.645 179.444 310.751 172.315 312.965 165.805C315.178 159.229 318.434 153.533 322.73 148.715C327.027 143.897 332.333 140.154 338.648 137.484C344.964 134.75 352.255 133.383 360.523 133.383C368.857 133.383 376.181 134.75 382.496 137.484C388.876 140.154 394.215 143.897 398.512 148.715C402.809 153.533 406.064 159.229 408.277 165.805C410.491 172.315 411.598 179.444 411.598 187.191V189.242C411.598 196.924 410.491 204.053 408.277 210.629C406.064 217.139 402.809 222.836 398.512 227.719C394.215 232.536 388.909 236.28 382.594 238.949C376.279 241.618 368.987 242.953 360.719 242.953C352.451 242.953 345.126 241.618 338.746 238.949C332.366 236.28 327.027 232.536 322.73 227.719C318.434 222.836 315.178 217.139 312.965 210.629C310.751 204.053 309.645 196.924 309.645 189.242ZM342.555 187.191V189.242C342.555 193.214 342.848 196.924 343.434 200.375C344.02 203.826 344.996 206.853 346.363 209.457C347.73 211.996 349.586 213.982 351.93 215.414C354.273 216.846 357.203 217.562 360.719 217.562C364.169 217.562 367.034 216.846 369.312 215.414C371.656 213.982 373.512 211.996 374.879 209.457C376.246 206.853 377.223 203.826 377.809 200.375C378.395 196.924 378.688 193.214 378.688 189.242V187.191C378.688 183.35 378.395 179.737 377.809 176.352C377.223 172.901 376.246 169.874 374.879 167.27C373.512 164.6 371.656 162.517 369.312 161.02C366.969 159.522 364.039 158.773 360.523 158.773C357.073 158.773 354.176 159.522 351.832 161.02C349.553 162.517 347.73 164.6 346.363 167.27C344.996 169.874 344.02 172.901 343.434 176.352C342.848 179.737 342.555 183.35 342.555 187.191ZM422.145 189.242V187.191C422.145 179.444 423.251 172.315 425.465 165.805C427.678 159.229 430.934 153.533 435.23 148.715C439.527 143.897 444.833 140.154 451.148 137.484C457.464 134.75 464.755 133.383 473.023 133.383C481.357 133.383 488.681 134.75 494.996 137.484C501.376 140.154 506.715 143.897 511.012 148.715C515.309 153.533 518.564 159.229 520.777 165.805C522.991 172.315 524.098 179.444 524.098 187.191V189.242C524.098 196.924 522.991 204.053 520.777 210.629C518.564 217.139 515.309 222.836 511.012 227.719C506.715 232.536 501.409 236.28 495.094 238.949C488.779 241.618 481.487 242.953 473.219 242.953C464.951 242.953 457.626 241.618 451.246 238.949C444.866 236.28 439.527 232.536 435.23 227.719C430.934 222.836 427.678 217.139 425.465 210.629C423.251 204.053 422.145 196.924 422.145 189.242ZM455.055 187.191V189.242C455.055 193.214 455.348 196.924 455.934 200.375C456.52 203.826 457.496 206.853 458.863 209.457C460.23 211.996 462.086 213.982 464.43 215.414C466.773 216.846 469.703 217.562 473.219 217.562C476.669 217.562 479.534 216.846 481.812 215.414C484.156 213.982 486.012 211.996 487.379 209.457C488.746 206.853 489.723 203.826 490.309 200.375C490.895 196.924 491.188 193.214 491.188 189.242V187.191C491.188 183.35 490.895 179.737 490.309 176.352C489.723 172.901 488.746 169.874 487.379 167.27C486.012 164.6 484.156 162.517 481.812 161.02C479.469 159.522 476.539 158.773 473.023 158.773C469.573 158.773 466.676 159.522 464.332 161.02C462.053 162.517 460.23 164.6 458.863 167.27C457.496 169.874 456.52 172.901 455.934 176.352C455.348 179.737 455.055 183.35 455.055 187.191ZM571.949 157.699V241H539.039V135.336H569.898L571.949 157.699ZM567.945 184.555L560.426 184.75C560.426 177.328 561.305 170.492 563.062 164.242C564.82 157.992 567.424 152.556 570.875 147.934C574.326 143.311 578.557 139.73 583.57 137.191C588.648 134.652 594.508 133.383 601.148 133.383C605.771 133.383 609.97 134.099 613.746 135.531C617.522 136.898 620.777 139.079 623.512 142.074C626.246 145.004 628.329 148.845 629.762 153.598C631.259 158.285 632.008 163.917 632.008 170.492V241H599.098V174.691C599.098 170.199 598.577 166.814 597.535 164.535C596.559 162.257 595.126 160.727 593.238 159.945C591.35 159.164 589.039 158.773 586.305 158.773C583.44 158.773 580.868 159.424 578.59 160.727C576.311 162.029 574.358 163.852 572.73 166.195C571.168 168.474 569.964 171.176 569.117 174.301C568.336 177.426 567.945 180.844 567.945 184.555ZM628.297 184.555L619.117 184.75C619.117 177.328 619.931 170.492 621.559 164.242C623.251 157.992 625.758 152.556 629.078 147.934C632.464 143.311 636.663 139.73 641.676 137.191C646.689 134.652 652.516 133.383 659.156 133.383C663.974 133.383 668.401 134.099 672.438 135.531C676.474 136.964 679.957 139.275 682.887 142.465C685.816 145.655 688.095 149.887 689.723 155.16C691.35 160.368 692.164 166.814 692.164 174.496V241H659.156V174.496C659.156 170.134 658.635 166.846 657.594 164.633C656.617 162.354 655.185 160.824 653.297 160.043C651.409 159.197 649.163 158.773 646.559 158.773C643.434 158.773 640.732 159.424 638.453 160.727C636.174 162.029 634.254 163.852 632.691 166.195C631.194 168.474 630.087 171.176 629.371 174.301C628.655 177.426 628.297 180.844 628.297 184.555Z" fill="#E78A00"/>
<path d="M821.754 183.285L762.379 163.168V133.285L848.316 168.441V190.805L821.754 183.285ZM762.379 199.691L821.754 179.086L848.316 172.152V194.418L762.379 229.574V199.691Z" fill="#FFB802"/>
<path d="M868 175L763.75 232.158V117.842L868 175Z" fill="#E78A00"/>
</svg>
