<svg width="779" height="423" viewBox="0 0 779 423" fill="none" xmlns="http://www.w3.org/2000/svg">
<path d="M400.31 242.803C400.31 238.824 398.73 235.009 395.917 232.196L238.008 74.2873L227.402 84.8939L216.795 74.2873L58.8866 232.196C56.0735 235.009 54.4932 238.824 54.4932 242.803V353.523C54.4932 367.971 60.2327 381.828 70.4492 392.044C80.6656 402.26 94.5221 408 108.97 408H345.833C360.282 408 374.138 402.26 384.354 392.044C394.571 381.827 400.31 367.971 400.31 353.523V242.803ZM348.386 166.744C352.676 171.034 359.128 172.317 364.733 169.995C370.338 167.673 373.992 162.204 373.992 156.137V64.0236C373.992 56.5554 371.026 49.393 365.745 44.1122C360.464 38.8313 353.302 35.8646 345.833 35.8646H319.515C312.047 35.8646 304.885 38.8313 299.604 44.1122C294.323 49.393 291.356 56.5554 291.356 64.0236V103.501C291.356 107.479 292.937 111.294 295.75 114.107L348.386 166.744Z" fill="#00A3FF" stroke="white" stroke-width="30" stroke-linejoin="round"/>
<path d="M198.191 27.0974L198.19 27.0982L23.2533 202.008L23.2525 202.009C17.9685 207.293 15 214.46 15 221.932C15 229.405 17.9685 236.572 23.2525 241.856C28.5364 247.14 35.703 250.108 43.1757 250.108C50.6483 250.108 57.8149 247.14 63.0989 241.856L63.0997 241.855L227.402 77.5273L391.705 241.855L391.706 241.856C396.99 247.14 404.157 250.108 411.629 250.108C419.102 250.108 426.268 247.14 431.552 241.856C436.836 236.572 439.805 229.405 439.805 221.932C439.805 214.46 436.836 207.293 431.552 202.009L431.552 202.008L256.615 27.0982L256.614 27.0974C248.866 19.3514 238.359 15 227.402 15C216.446 15 205.939 19.3514 198.191 27.0974Z" fill="#00A3FF" stroke="white" stroke-width="30" stroke-linejoin="round"/>
<rect x="221.5" y="281.5" width="550" height="134" rx="32.5" fill="white" stroke="white" stroke-width="15"/>
<mask id="path-4-outside-1_5_19" maskUnits="userSpaceOnUse" x="198.84" y="208.812" width="580" height="205" fill="black">
<rect fill="white" x="198.84" y="208.812" width="580" height="205"/>
<path d="M324.641 295.258V321.625H251.691V295.258H324.641ZM263.117 238.812V381H228.84V238.812H263.117ZM347.688 238.812V381H313.508V238.812H347.688Z"/>
<path d="M363.801 329.242V327.191C363.801 319.444 364.908 312.315 367.121 305.805C369.335 299.229 372.59 293.533 376.887 288.715C381.184 283.897 386.49 280.154 392.805 277.484C399.12 274.75 406.411 273.383 414.68 273.383C423.013 273.383 430.337 274.75 436.652 277.484C443.033 280.154 448.371 283.897 452.668 288.715C456.965 293.533 460.22 299.229 462.434 305.805C464.647 312.315 465.754 319.444 465.754 327.191V329.242C465.754 336.924 464.647 344.053 462.434 350.629C460.22 357.139 456.965 362.836 452.668 367.719C448.371 372.536 443.065 376.28 436.75 378.949C430.435 381.618 423.143 382.953 414.875 382.953C406.607 382.953 399.283 381.618 392.902 378.949C386.522 376.28 381.184 372.536 376.887 367.719C372.59 362.836 369.335 357.139 367.121 350.629C364.908 344.053 363.801 336.924 363.801 329.242ZM396.711 327.191V329.242C396.711 333.214 397.004 336.924 397.59 340.375C398.176 343.826 399.152 346.853 400.52 349.457C401.887 351.996 403.742 353.982 406.086 355.414C408.43 356.846 411.359 357.562 414.875 357.562C418.326 357.562 421.19 356.846 423.469 355.414C425.812 353.982 427.668 351.996 429.035 349.457C430.402 346.853 431.379 343.826 431.965 340.375C432.551 336.924 432.844 333.214 432.844 329.242V327.191C432.844 323.35 432.551 319.737 431.965 316.352C431.379 312.901 430.402 309.874 429.035 307.27C427.668 304.6 425.812 302.517 423.469 301.02C421.125 299.522 418.195 298.773 414.68 298.773C411.229 298.773 408.332 299.522 405.988 301.02C403.71 302.517 401.887 304.6 400.52 307.27C399.152 309.874 398.176 312.901 397.59 316.352C397.004 319.737 396.711 323.35 396.711 327.191Z"/>
<path d="M513.605 297.699V381H480.695V275.336H511.555L513.605 297.699ZM509.602 324.555L502.082 324.75C502.082 317.328 502.961 310.492 504.719 304.242C506.477 297.992 509.081 292.556 512.531 287.934C515.982 283.311 520.214 279.73 525.227 277.191C530.305 274.652 536.164 273.383 542.805 273.383C547.427 273.383 551.626 274.099 555.402 275.531C559.178 276.898 562.434 279.079 565.168 282.074C567.902 285.004 569.986 288.845 571.418 293.598C572.915 298.285 573.664 303.917 573.664 310.492V381H540.754V314.691C540.754 310.199 540.233 306.814 539.191 304.535C538.215 302.257 536.783 300.727 534.895 299.945C533.007 299.164 530.695 298.773 527.961 298.773C525.096 298.773 522.525 299.424 520.246 300.727C517.967 302.029 516.014 303.852 514.387 306.195C512.824 308.474 511.62 311.176 510.773 314.301C509.992 317.426 509.602 320.844 509.602 324.555ZM569.953 324.555L560.773 324.75C560.773 317.328 561.587 310.492 563.215 304.242C564.908 297.992 567.414 292.556 570.734 287.934C574.12 283.311 578.319 279.73 583.332 277.191C588.345 274.652 594.172 273.383 600.812 273.383C605.63 273.383 610.057 274.099 614.094 275.531C618.13 276.964 621.613 279.275 624.543 282.465C627.473 285.655 629.751 289.887 631.379 295.16C633.007 300.368 633.82 306.814 633.82 314.496V381H600.812V314.496C600.812 310.134 600.292 306.846 599.25 304.633C598.273 302.354 596.841 300.824 594.953 300.043C593.065 299.197 590.819 298.773 588.215 298.773C585.09 298.773 582.388 299.424 580.109 300.727C577.831 302.029 575.91 303.852 574.348 306.195C572.85 308.474 571.743 311.176 571.027 314.301C570.311 317.426 569.953 320.844 569.953 324.555Z"/>
<path d="M703.84 382.953C695.246 382.953 687.564 381.618 680.793 378.949C674.022 376.215 668.293 372.471 663.605 367.719C658.983 362.966 655.435 357.497 652.961 351.312C650.552 345.128 649.348 338.585 649.348 331.684V327.973C649.348 320.225 650.422 313.064 652.57 306.488C654.719 299.848 657.909 294.053 662.141 289.105C666.372 284.158 671.678 280.316 678.059 277.582C684.439 274.783 691.861 273.383 700.324 273.383C707.811 273.383 714.517 274.587 720.441 276.996C726.366 279.405 731.379 282.855 735.48 287.348C739.647 291.84 742.805 297.276 744.953 303.656C747.167 310.036 748.273 317.198 748.273 325.141V338.52H661.945V317.914H716.145V315.375C716.21 311.859 715.591 308.865 714.289 306.391C713.052 303.917 711.229 302.029 708.82 300.727C706.411 299.424 703.482 298.773 700.031 298.773C696.451 298.773 693.488 299.555 691.145 301.117C688.866 302.68 687.076 304.828 685.773 307.562C684.536 310.232 683.658 313.324 683.137 316.84C682.616 320.355 682.355 324.066 682.355 327.973V331.684C682.355 335.59 682.876 339.138 683.918 342.328C685.025 345.518 686.587 348.253 688.605 350.531C690.689 352.745 693.163 354.47 696.027 355.707C698.957 356.944 702.277 357.562 705.988 357.562C710.48 357.562 714.908 356.716 719.27 355.023C723.632 353.331 727.375 350.531 730.5 346.625L745.441 364.398C743.293 367.458 740.233 370.421 736.262 373.285C732.355 376.15 727.668 378.493 722.199 380.316C716.73 382.074 710.611 382.953 703.84 382.953Z"/>
</mask>
<path d="M324.641 295.258V321.625H251.691V295.258H324.641ZM263.117 238.812V381H228.84V238.812H263.117ZM347.688 238.812V381H313.508V238.812H347.688Z" fill="#00A3FF"/>
<path d="M363.801 329.242V327.191C363.801 319.444 364.908 312.315 367.121 305.805C369.335 299.229 372.59 293.533 376.887 288.715C381.184 283.897 386.49 280.154 392.805 277.484C399.12 274.75 406.411 273.383 414.68 273.383C423.013 273.383 430.337 274.75 436.652 277.484C443.033 280.154 448.371 283.897 452.668 288.715C456.965 293.533 460.22 299.229 462.434 305.805C464.647 312.315 465.754 319.444 465.754 327.191V329.242C465.754 336.924 464.647 344.053 462.434 350.629C460.22 357.139 456.965 362.836 452.668 367.719C448.371 372.536 443.065 376.28 436.75 378.949C430.435 381.618 423.143 382.953 414.875 382.953C406.607 382.953 399.283 381.618 392.902 378.949C386.522 376.28 381.184 372.536 376.887 367.719C372.59 362.836 369.335 357.139 367.121 350.629C364.908 344.053 363.801 336.924 363.801 329.242ZM396.711 327.191V329.242C396.711 333.214 397.004 336.924 397.59 340.375C398.176 343.826 399.152 346.853 400.52 349.457C401.887 351.996 403.742 353.982 406.086 355.414C408.43 356.846 411.359 357.562 414.875 357.562C418.326 357.562 421.19 356.846 423.469 355.414C425.812 353.982 427.668 351.996 429.035 349.457C430.402 346.853 431.379 343.826 431.965 340.375C432.551 336.924 432.844 333.214 432.844 329.242V327.191C432.844 323.35 432.551 319.737 431.965 316.352C431.379 312.901 430.402 309.874 429.035 307.27C427.668 304.6 425.812 302.517 423.469 301.02C421.125 299.522 418.195 298.773 414.68 298.773C411.229 298.773 408.332 299.522 405.988 301.02C403.71 302.517 401.887 304.6 400.52 307.27C399.152 309.874 398.176 312.901 397.59 316.352C397.004 319.737 396.711 323.35 396.711 327.191Z" fill="#00A3FF"/>
<path d="M513.605 297.699V381H480.695V275.336H511.555L513.605 297.699ZM509.602 324.555L502.082 324.75C502.082 317.328 502.961 310.492 504.719 304.242C506.477 297.992 509.081 292.556 512.531 287.934C515.982 283.311 520.214 279.73 525.227 277.191C530.305 274.652 536.164 273.383 542.805 273.383C547.427 273.383 551.626 274.099 555.402 275.531C559.178 276.898 562.434 279.079 565.168 282.074C567.902 285.004 569.986 288.845 571.418 293.598C572.915 298.285 573.664 303.917 573.664 310.492V381H540.754V314.691C540.754 310.199 540.233 306.814 539.191 304.535C538.215 302.257 536.783 300.727 534.895 299.945C533.007 299.164 530.695 298.773 527.961 298.773C525.096 298.773 522.525 299.424 520.246 300.727C517.967 302.029 516.014 303.852 514.387 306.195C512.824 308.474 511.62 311.176 510.773 314.301C509.992 317.426 509.602 320.844 509.602 324.555ZM569.953 324.555L560.773 324.75C560.773 317.328 561.587 310.492 563.215 304.242C564.908 297.992 567.414 292.556 570.734 287.934C574.12 283.311 578.319 279.73 583.332 277.191C588.345 274.652 594.172 273.383 600.812 273.383C605.63 273.383 610.057 274.099 614.094 275.531C618.13 276.964 621.613 279.275 624.543 282.465C627.473 285.655 629.751 289.887 631.379 295.16C633.007 300.368 633.82 306.814 633.82 314.496V381H600.812V314.496C600.812 310.134 600.292 306.846 599.25 304.633C598.273 302.354 596.841 300.824 594.953 300.043C593.065 299.197 590.819 298.773 588.215 298.773C585.09 298.773 582.388 299.424 580.109 300.727C577.831 302.029 575.91 303.852 574.348 306.195C572.85 308.474 571.743 311.176 571.027 314.301C570.311 317.426 569.953 320.844 569.953 324.555Z" fill="#00A3FF"/>
<path d="M703.84 382.953C695.246 382.953 687.564 381.618 680.793 378.949C674.022 376.215 668.293 372.471 663.605 367.719C658.983 362.966 655.435 357.497 652.961 351.312C650.552 345.128 649.348 338.585 649.348 331.684V327.973C649.348 320.225 650.422 313.064 652.57 306.488C654.719 299.848 657.909 294.053 662.141 289.105C666.372 284.158 671.678 280.316 678.059 277.582C684.439 274.783 691.861 273.383 700.324 273.383C707.811 273.383 714.517 274.587 720.441 276.996C726.366 279.405 731.379 282.855 735.48 287.348C739.647 291.84 742.805 297.276 744.953 303.656C747.167 310.036 748.273 317.198 748.273 325.141V338.52H661.945V317.914H716.145V315.375C716.21 311.859 715.591 308.865 714.289 306.391C713.052 303.917 711.229 302.029 708.82 300.727C706.411 299.424 703.482 298.773 700.031 298.773C696.451 298.773 693.488 299.555 691.145 301.117C688.866 302.68 687.076 304.828 685.773 307.562C684.536 310.232 683.658 313.324 683.137 316.84C682.616 320.355 682.355 324.066 682.355 327.973V331.684C682.355 335.59 682.876 339.138 683.918 342.328C685.025 345.518 686.587 348.253 688.605 350.531C690.689 352.745 693.163 354.47 696.027 355.707C698.957 356.944 702.277 357.562 705.988 357.562C710.48 357.562 714.908 356.716 719.27 355.023C723.632 353.331 727.375 350.531 730.5 346.625L745.441 364.398C743.293 367.458 740.233 370.421 736.262 373.285C732.355 376.15 727.668 378.493 722.199 380.316C716.73 382.074 710.611 382.953 703.84 382.953Z" fill="#00A3FF"/>
<path d="M324.641 295.258V321.625H251.691V295.258H324.641ZM263.117 238.812V381H228.84V238.812H263.117ZM347.688 238.812V381H313.508V238.812H347.688Z" stroke="white" stroke-width="60" stroke-linejoin="round" mask="url(#path-4-outside-1_5_19)"/>
<path d="M363.801 329.242V327.191C363.801 319.444 364.908 312.315 367.121 305.805C369.335 299.229 372.59 293.533 376.887 288.715C381.184 283.897 386.49 280.154 392.805 277.484C399.12 274.75 406.411 273.383 414.68 273.383C423.013 273.383 430.337 274.75 436.652 277.484C443.033 280.154 448.371 283.897 452.668 288.715C456.965 293.533 460.22 299.229 462.434 305.805C464.647 312.315 465.754 319.444 465.754 327.191V329.242C465.754 336.924 464.647 344.053 462.434 350.629C460.22 357.139 456.965 362.836 452.668 367.719C448.371 372.536 443.065 376.28 436.75 378.949C430.435 381.618 423.143 382.953 414.875 382.953C406.607 382.953 399.283 381.618 392.902 378.949C386.522 376.28 381.184 372.536 376.887 367.719C372.59 362.836 369.335 357.139 367.121 350.629C364.908 344.053 363.801 336.924 363.801 329.242ZM396.711 327.191V329.242C396.711 333.214 397.004 336.924 397.59 340.375C398.176 343.826 399.152 346.853 400.52 349.457C401.887 351.996 403.742 353.982 406.086 355.414C408.43 356.846 411.359 357.562 414.875 357.562C418.326 357.562 421.19 356.846 423.469 355.414C425.812 353.982 427.668 351.996 429.035 349.457C430.402 346.853 431.379 343.826 431.965 340.375C432.551 336.924 432.844 333.214 432.844 329.242V327.191C432.844 323.35 432.551 319.737 431.965 316.352C431.379 312.901 430.402 309.874 429.035 307.27C427.668 304.6 425.812 302.517 423.469 301.02C421.125 299.522 418.195 298.773 414.68 298.773C411.229 298.773 408.332 299.522 405.988 301.02C403.71 302.517 401.887 304.6 400.52 307.27C399.152 309.874 398.176 312.901 397.59 316.352C397.004 319.737 396.711 323.35 396.711 327.191Z" stroke="white" stroke-width="60" stroke-linejoin="round" mask="url(#path-4-outside-1_5_19)"/>
<path d="M513.605 297.699V381H480.695V275.336H511.555L513.605 297.699ZM509.602 324.555L502.082 324.75C502.082 317.328 502.961 310.492 504.719 304.242C506.477 297.992 509.081 292.556 512.531 287.934C515.982 283.311 520.214 279.73 525.227 277.191C530.305 274.652 536.164 273.383 542.805 273.383C547.427 273.383 551.626 274.099 555.402 275.531C559.178 276.898 562.434 279.079 565.168 282.074C567.902 285.004 569.986 288.845 571.418 293.598C572.915 298.285 573.664 303.917 573.664 310.492V381H540.754V314.691C540.754 310.199 540.233 306.814 539.191 304.535C538.215 302.257 536.783 300.727 534.895 299.945C533.007 299.164 530.695 298.773 527.961 298.773C525.096 298.773 522.525 299.424 520.246 300.727C517.967 302.029 516.014 303.852 514.387 306.195C512.824 308.474 511.62 311.176 510.773 314.301C509.992 317.426 509.602 320.844 509.602 324.555ZM569.953 324.555L560.773 324.75C560.773 317.328 561.587 310.492 563.215 304.242C564.908 297.992 567.414 292.556 570.734 287.934C574.12 283.311 578.319 279.73 583.332 277.191C588.345 274.652 594.172 273.383 600.812 273.383C605.63 273.383 610.057 274.099 614.094 275.531C618.13 276.964 621.613 279.275 624.543 282.465C627.473 285.655 629.751 289.887 631.379 295.16C633.007 300.368 633.82 306.814 633.82 314.496V381H600.812V314.496C600.812 310.134 600.292 306.846 599.25 304.633C598.273 302.354 596.841 300.824 594.953 300.043C593.065 299.197 590.819 298.773 588.215 298.773C585.09 298.773 582.388 299.424 580.109 300.727C577.831 302.029 575.91 303.852 574.348 306.195C572.85 308.474 571.743 311.176 571.027 314.301C570.311 317.426 569.953 320.844 569.953 324.555Z" stroke="white" stroke-width="60" stroke-linejoin="round" mask="url(#path-4-outside-1_5_19)"/>
<path d="M703.84 382.953C695.246 382.953 687.564 381.618 680.793 378.949C674.022 376.215 668.293 372.471 663.605 367.719C658.983 362.966 655.435 357.497 652.961 351.312C650.552 345.128 649.348 338.585 649.348 331.684V327.973C649.348 320.225 650.422 313.064 652.57 306.488C654.719 299.848 657.909 294.053 662.141 289.105C666.372 284.158 671.678 280.316 678.059 277.582C684.439 274.783 691.861 273.383 700.324 273.383C707.811 273.383 714.517 274.587 720.441 276.996C726.366 279.405 731.379 282.855 735.48 287.348C739.647 291.84 742.805 297.276 744.953 303.656C747.167 310.036 748.273 317.198 748.273 325.141V338.52H661.945V317.914H716.145V315.375C716.21 311.859 715.591 308.865 714.289 306.391C713.052 303.917 711.229 302.029 708.82 300.727C706.411 299.424 703.482 298.773 700.031 298.773C696.451 298.773 693.488 299.555 691.145 301.117C688.866 302.68 687.076 304.828 685.773 307.562C684.536 310.232 683.658 313.324 683.137 316.84C682.616 320.355 682.355 324.066 682.355 327.973V331.684C682.355 335.59 682.876 339.138 683.918 342.328C685.025 345.518 686.587 348.253 688.605 350.531C690.689 352.745 693.163 354.47 696.027 355.707C698.957 356.944 702.277 357.562 705.988 357.562C710.48 357.562 714.908 356.716 719.27 355.023C723.632 353.331 727.375 350.531 730.5 346.625L745.441 364.398C743.293 367.458 740.233 370.421 736.262 373.285C732.355 376.15 727.668 378.493 722.199 380.316C716.73 382.074 710.611 382.953 703.84 382.953Z" stroke="white" stroke-width="60" stroke-linejoin="round" mask="url(#path-4-outside-1_5_19)"/>
</svg>
